<?xml version="1.0" standalone="no"?>
<!DOCTYPE svg PUBLIC "-//W3C//DTD SVG 20010904//EN"
 "http://www.w3.org/TR/2001/REC-SVG-20010904/DTD/svg10.dtd">
<svg version="1.0" xmlns="http://www.w3.org/2000/svg"
 width="420.000000pt" height="420.000000pt" viewBox="0 0 420.000000 420.000000"
 preserveAspectRatio="xMidYMid meet">

<g transform="translate(0.000000,420.000000) scale(0.100000,-0.100000)"
fill="#000000" stroke="none">
<path d="M1960 4194 c-176 -11 -410 -60 -565 -119 -38 -14 -79 -29 -90 -32
-11 -4 -76 -35 -145 -69 -600 -298 -1015 -859 -1135 -1535 -8 -46 -15 -103
-15 -126 l0 -43 530 0 c499 0 530 1 530 18 0 53 108 283 172 365 90 115 207
219 313 277 33 18 65 36 70 40 6 4 42 19 80 33 308 114 601 94 884 -60 233
-127 395 -320 489 -588 l29 -80 534 -2 c506 -3 588 1 553 25 -6 4 -14 34 -18
67 -43 365 -227 787 -467 1073 -128 152 -299 305 -469 419 -126 85 -375 202
-520 244 -36 11 -78 23 -95 28 -32 10 -149 33 -250 50 -66 11 -328 21 -415 15z"/>
<path d="M1955 2810 c-147 -24 -246 -68 -400 -177 -22 -16 -68 -62 -101 -102
-242 -288 -241 -690 0 -973 131 -154 261 -229 469 -273 163 -35 389 -5 538 70
145 74 300 228 356 355 63 144 76 210 71 360 -4 104 -9 139 -33 210 -50 146
-133 263 -260 367 -55 45 -227 128 -305 148 -75 19 -262 27 -335 15z"/>
<path d="M27 1764 c98 -577 435 -1091 920 -1408 281 -183 623 -305 931 -332
45 -3 82 -11 82 -15 0 -5 61 -9 135 -9 74 0 135 4 135 9 0 4 37 12 83 15 113
10 318 51 382 76 11 4 56 20 100 35 146 49 326 138 457 226 119 80 319 250
384 326 27 32 57 67 68 78 78 83 200 274 281 440 84 173 185 505 185 609 l0
26 -530 0 c-416 0 -531 -3 -534 -12 -61 -223 -155 -389 -297 -524 -265 -250
-607 -342 -979 -261 -172 38 -354 143 -499 288 -80 80 -103 113 -187 266 -26
47 -71 174 -76 213 l-3 25 -526 3 -525 2 13 -76z"/>
</g>
</svg>
